<svg width="33" height="32" viewBox="0 0 33 32" fill="none" xmlns="http://www.w3.org/2000/svg">
<g id="entypo:light-down">
<path id="Vector" d="M16.6222 10.8752C15.9474 10.8733 15.2789 11.0045 14.6552 11.2612C14.0314 11.5179 13.4647 11.8951 12.9877 12.3711C12.5106 12.8471 12.1326 13.4125 11.8754 14.0347C11.6182 14.6569 11.4869 15.3238 11.489 15.9968C11.4871 16.6696 11.6186 17.3362 11.8759 17.9581C12.1332 18.5801 12.5113 19.1452 12.9883 19.6209C13.4654 20.0965 14.032 20.4735 14.6557 20.7299C15.2793 20.9864 15.9476 21.1173 16.6222 21.1152C17.2966 21.1171 17.9647 20.986 18.5882 20.7294C19.2116 20.4729 19.7781 20.0959 20.255 19.6203C20.7319 19.1446 21.1098 18.5796 21.367 17.9578C21.6242 17.3359 21.7556 16.6695 21.7537 15.9968C21.7561 15.3238 21.6249 14.6571 21.3679 14.0348C21.1109 13.4126 20.733 12.8472 20.2561 12.3712C19.7792 11.8952 19.2126 11.518 18.5889 11.2612C17.9653 11.0045 17.2969 10.8733 16.6222 10.8752ZM16.6222 19.2752C15.75 19.2752 14.9136 18.9296 14.2969 18.3145C13.6802 17.6994 13.3337 16.8651 13.3337 15.9952C13.3337 15.1253 13.6802 14.291 14.2969 13.6759C14.9136 13.0608 15.75 12.7152 16.6222 12.7152C17.4943 12.7152 18.3307 13.0608 18.9474 13.6759C19.5641 14.291 19.9106 15.1253 19.9106 15.9952C19.9106 16.8651 19.5641 17.6994 18.9474 18.3145C18.3307 18.9296 17.4943 19.2752 16.6222 19.2752ZM24.6427 7.99999C24.1422 7.50079 23.2263 7.60319 22.6007 8.22719C21.9751 8.85279 21.874 9.76159 22.3745 10.2624C22.875 10.7632 23.7893 10.6624 24.4165 10.0368C25.0422 9.41279 25.1432 8.49919 24.6427 7.99999ZM8.82938 21.9664C8.20217 22.5904 8.10111 23.5008 8.6016 24C9.10208 24.4992 10.0164 24.4 10.6436 23.7744C11.2708 23.1488 11.3719 22.2368 10.8714 21.7376C10.3709 21.2384 9.45499 21.3408 8.82938 21.9664ZM8.6016 7.99999C8.10111 8.49919 8.20217 9.41279 8.82778 10.0368C9.45499 10.6624 10.3693 10.7616 10.8698 10.2624C11.3703 9.76319 11.2692 8.84959 10.642 8.22559C10.018 7.60319 9.10208 7.50079 8.6016 7.99999ZM22.6007 23.7712C23.2263 24.3968 24.1406 24.4992 24.6427 24C25.1448 23.5008 25.0422 22.5872 24.4149 21.9616C23.7877 21.336 22.875 21.2368 22.3729 21.736C21.8708 22.2352 21.9751 23.1472 22.6007 23.7712ZM16.6222 7.99679C17.3296 7.99679 17.9055 7.28159 17.9055 6.39679C17.9039 5.51199 17.3296 4.79999 16.6222 4.79999C15.9131 4.79999 15.3373 5.51199 15.3373 6.39679C15.3373 7.28159 15.9115 7.99679 16.6222 7.99679ZM16.6222 27.2C17.3296 27.2 17.9055 26.4848 17.9055 25.6C17.9055 24.7152 17.3312 24.0032 16.6238 24.0032C15.9148 24.0032 15.3389 24.7152 15.3389 25.6C15.3373 26.4848 15.9115 27.2 16.6222 27.2ZM8.6016 16C8.6016 15.2944 7.87975 14.72 6.99267 14.72C6.1056 14.72 5.39337 15.2944 5.39337 16C5.39337 16.7072 6.1056 17.28 6.99267 17.28C7.87975 17.28 8.6016 16.7072 8.6016 16ZM27.851 16C27.851 15.2944 27.1323 14.72 26.2452 14.72C25.3582 14.72 24.6427 15.2944 24.6427 16C24.6427 16.7072 25.3582 17.28 26.2452 17.28C27.1323 17.28 27.851 16.7072 27.851 16Z" fill="white"/>
</g>
</svg>
